<svg id="visual" viewBox="0 0 1920 1080" width="1920" height="1080" xmlns="http://www.w3.org/2000/svg" xmlns:xlink="http://www.w3.org/1999/xlink" version="1.1"><path d="M0 670L45.7 686.5C91.3 703 182.7 736 274.2 746.2C365.7 756.3 457.3 743.7 548.8 724.8C640.3 706 731.7 681 823 687.7C914.3 694.3 1005.7 732.7 1097 750.5C1188.3 768.3 1279.7 765.7 1371.2 743C1462.7 720.3 1554.3 677.7 1645.8 661.2C1737.3 644.7 1828.7 654.3 1874.3 659.2L1920 664L1920 1081L1874.3 1081C1828.7 1081 1737.3 1081 1645.8 1081C1554.3 1081 1462.7 1081 1371.2 1081C1279.7 1081 1188.3 1081 1097 1081C1005.7 1081 914.3 1081 823 1081C731.7 1081 640.3 1081 548.8 1081C457.3 1081 365.7 1081 274.2 1081C182.7 1081 91.3 1081 45.7 1081L0 1081Z" fill="#887c99"></path><path d="M0 819L45.7 810C91.3 801 182.7 783 274.2 768.7C365.7 754.3 457.3 743.7 548.8 738.5C640.3 733.3 731.7 733.7 823 731C914.3 728.3 1005.7 722.7 1097 721.5C1188.3 720.3 1279.7 723.7 1371.2 728.3C1462.7 733 1554.3 739 1645.8 752.2C1737.3 765.3 1828.7 785.7 1874.3 795.8L1920 806L1920 1081L1874.3 1081C1828.7 1081 1737.3 1081 1645.8 1081C1554.3 1081 1462.7 1081 1371.2 1081C1279.7 1081 1188.3 1081 1097 1081C1005.7 1081 914.3 1081 823 1081C731.7 1081 640.3 1081 548.8 1081C457.3 1081 365.7 1081 274.2 1081C182.7 1081 91.3 1081 45.7 1081L0 1081Z" fill="#bc7ea1"></path><path d="M0 860L45.7 870.2C91.3 880.3 182.7 900.7 274.2 891.3C365.7 882 457.3 843 548.8 831.5C640.3 820 731.7 836 823 851.7C914.3 867.3 1005.7 882.7 1097 876.8C1188.3 871 1279.7 844 1371.2 842.3C1462.7 840.7 1554.3 864.3 1645.8 878C1737.3 891.7 1828.7 895.3 1874.3 897.2L1920 899L1920 1081L1874.3 1081C1828.7 1081 1737.3 1081 1645.8 1081C1554.3 1081 1462.7 1081 1371.2 1081C1279.7 1081 1188.3 1081 1097 1081C1005.7 1081 914.3 1081 823 1081C731.7 1081 640.3 1081 548.8 1081C457.3 1081 365.7 1081 274.2 1081C182.7 1081 91.3 1081 45.7 1081L0 1081Z" fill="#ec8188"></path><path d="M0 962L45.7 952.2C91.3 942.3 182.7 922.7 274.2 920.7C365.7 918.7 457.3 934.3 548.8 943C640.3 951.7 731.7 953.3 823 941.5C914.3 929.7 1005.7 904.3 1097 898C1188.3 891.7 1279.7 904.3 1371.2 919C1462.7 933.7 1554.3 950.3 1645.8 944.5C1737.3 938.7 1828.7 910.3 1874.3 896.2L1920 882L1920 1081L1874.3 1081C1828.7 1081 1737.3 1081 1645.8 1081C1554.3 1081 1462.7 1081 1371.2 1081C1279.7 1081 1188.3 1081 1097 1081C1005.7 1081 914.3 1081 823 1081C731.7 1081 640.3 1081 548.8 1081C457.3 1081 365.7 1081 274.2 1081C182.7 1081 91.3 1081 45.7 1081L0 1081Z" fill="#fc975b"></path><path d="M0 968L45.7 969.5C91.3 971 182.7 974 274.2 976.8C365.7 979.7 457.3 982.3 548.8 980.3C640.3 978.3 731.7 971.7 823 969.2C914.3 966.7 1005.7 968.3 1097 973.8C1188.3 979.3 1279.7 988.7 1371.2 994.2C1462.7 999.7 1554.3 1001.3 1645.8 1004.3C1737.3 1007.3 1828.7 1011.7 1874.3 1013.8L1920 1016L1920 1081L1874.3 1081C1828.7 1081 1737.3 1081 1645.8 1081C1554.3 1081 1462.7 1081 1371.2 1081C1279.7 1081 1188.3 1081 1097 1081C1005.7 1081 914.3 1081 823 1081C731.7 1081 640.3 1081 548.8 1081C457.3 1081 365.7 1081 274.2 1081C182.7 1081 91.3 1081 45.7 1081L0 1081Z" fill="#e0bf31"></path></svg>